<svg xmlns="http://www.w3.org/2000/svg" width="24" height="24" viewBox="0 0 24 24" fill="none" stroke="#4C5B9B" stroke-width="2" stroke-linecap="round" stroke-linejoin="round" class="lucide lucide-lotus">
  <path d="M12 2a4 4 0 0 0-4 4 7 7 0 0 0 4 6 7 7 0 0 0 4-6 4 4 0 0 0-4-4Z"/>
  <path d="M4.93 10.93a6.66 6.66 0 0 0 2 4.05 7 7 0 0 0 5.07 2 7 7 0 0 0 5.07-2 6.66 6.66 0 0 0 2-4.05 4.74 4.74 0 0 0-2.71-1.82 4.84 4.84 0 0 0-4.36.88 4.84 4.84 0 0 0-4.36-.88 4.74 4.74 0 0 0-2.71 1.82Z"/>
  <path d="M12 22c1.17-.4 3.38-1.44 5-3.5a10 10 0 0 0 2-5.5"/>
  <path d="M5 13c0 2 1 6 7 9"/>
</svg>